<svg xmlns="http://www.w3.org/2000/svg" width="196" height="196" viewBox="0 0 196 196" version="1.1"><path d="M 88.250 19.662 C 87.382 20.012, 87 22.869, 87 29.002 L 87 37.837 80.750 39.937 C 77.313 41.092, 72.047 43.388, 69.049 45.041 L 63.599 48.045 57.523 42.022 C 54.181 38.710, 50.996 36, 50.446 36 C 49.178 36, 36 49.225, 36 50.498 C 36 51.020, 38.688 54.158, 41.974 57.473 L 47.947 63.500 45.540 68.530 C 44.216 71.297, 42.373 76.584, 41.445 80.280 L 39.757 87 29.985 87 C 18.567 87, 19 86.566, 19 98 C 19 109.431, 18.571 109, 29.959 109 L 39.703 109 41.426 115.363 C 42.373 118.862, 44.257 124.120, 45.613 127.047 L 48.078 132.367 42.039 138.461 C 38.718 141.812, 36 145.004, 36 145.554 C 36 146.822, 49.225 160, 50.498 160 C 51.020 160, 54.220 157.251, 57.610 153.891 L 63.773 147.783 68.393 150.490 C 70.934 151.979, 76.048 154.257, 79.757 155.552 L 86.500 157.905 86.788 166.986 L 87.076 176.067 97.788 175.783 L 108.500 175.500 109 166.701 L 109.500 157.902 116.020 155.628 C 119.606 154.377, 124.704 152.086, 127.350 150.535 L 132.160 147.716 138.590 154.090 L 145.021 160.463 152.742 152.742 L 160.463 145.021 154.143 138.644 L 147.823 132.267 149.776 128.384 C 151.790 124.380, 153.086 120.612, 154.982 113.250 L 156.077 109 166.039 109 L 176 109 176 98 L 176 87 166.019 87 L 156.038 87 155.430 84.250 C 154.266 78.984, 151.713 71.474, 149.774 67.616 L 147.823 63.733 153.911 57.589 C 157.260 54.211, 160 50.996, 160 50.446 C 160 49.178, 146.775 36, 145.502 36 C 144.980 36, 141.822 38.707, 138.484 42.016 L 132.414 48.032 126.564 44.864 C 123.347 43.121, 118.192 40.916, 115.107 39.963 L 109.500 38.231 109.208 29.398 C 109.025 23.880, 108.463 20.278, 107.708 19.798 C 106.389 18.960, 90.270 18.847, 88.250 19.662 M 91 31.378 C 91 40.668, 90.606 41.360, 84.705 42.423 C 82.618 42.800, 76.855 45.181, 71.897 47.715 L 62.883 52.322 57.163 46.661 C 54.016 43.547, 50.986 41, 50.429 41 C 49.167 41, 41 49.236, 41 50.509 C 41 51.022, 43.552 54.021, 46.670 57.172 L 52.341 62.903 49.213 69.701 C 47.492 73.441, 45.438 79.278, 44.649 82.673 C 43.859 86.068, 42.914 89.330, 42.548 89.923 C 42.148 90.569, 38.107 91, 32.441 91 L 23 91 23 98 L 23 105 32.441 105 C 38.107 105, 42.148 105.431, 42.548 106.077 C 42.914 106.670, 43.859 109.932, 44.649 113.327 C 45.438 116.722, 47.492 122.559, 49.213 126.299 L 52.341 133.097 46.455 139.046 L 40.569 144.994 45.474 149.973 L 50.379 154.953 56.594 148.985 L 62.808 143.018 69.328 146.827 C 72.914 148.923, 78.694 151.473, 82.174 152.494 C 85.653 153.515, 89.063 154.777, 89.750 155.298 C 90.575 155.923, 91 159.092, 91 164.622 L 91 173 98 173 L 105 173 105 163.969 C 105 157.579, 105.366 154.845, 106.250 154.621 C 113.515 152.785, 123.168 149.004, 127.346 146.358 L 132.500 143.094 138.759 149.277 L 145.017 155.459 150.248 150.229 L 155.478 144.998 149.369 138.889 L 143.259 132.779 146.137 127.139 C 147.720 124.038, 149.808 118.350, 150.779 114.500 C 151.749 110.650, 152.897 106.938, 153.330 106.250 C 153.870 105.394, 157.093 105, 163.559 105 L 173 105 173 98 L 173 91 163.622 91 C 157.306 91, 153.927 90.592, 153.272 89.750 C 152.737 89.063, 151.727 85.716, 151.027 82.314 C 150.327 78.911, 148.278 73.089, 146.475 69.375 L 143.196 62.623 149.075 56.501 L 154.953 50.379 149.973 45.474 L 144.994 40.569 139.002 46.498 L 133.011 52.427 126.255 48.838 C 119.495 45.247, 112.914 42.655, 107.750 41.550 L 105 40.962 105 31.981 L 105 23 98 23 L 91 23 91 31.378 M 85.352 58.061 C 68.748 63.324, 57.492 77.865, 56.249 95.657 C 55.015 113.326, 66.089 130.516, 83 137.182 C 90.451 140.119, 104.333 140.323, 111.500 137.601 C 123.643 132.989, 133.743 123.011, 137.670 111.748 C 140.307 104.184, 140.072 90.332, 137.182 83 C 129.075 62.432, 106.234 51.442, 85.352 58.061 M 85.423 61.773 C 74.629 65.605, 64.639 75.905, 61.455 86.483 C 59.833 91.873, 59.469 106, 60.952 106 C 61.476 106, 66.620 104.179, 72.383 101.953 C 81.970 98.250, 82.918 97.648, 83.527 94.878 C 84.984 88.243, 93.731 81.963, 99.499 83.410 C 101.665 83.954, 102.462 83.040, 107.921 73.755 L 113.951 63.500 110.725 62.055 C 105.640 59.776, 91.491 59.619, 85.423 61.773 M 111.446 75.094 L 105.700 85.155 108.276 87.731 L 110.852 90.307 120.950 86.519 C 126.504 84.435, 131.281 82.355, 131.565 81.895 C 132.392 80.556, 129.482 75.738, 125.152 71.276 C 117.822 63.723, 117.963 63.684, 111.446 75.094 M 122 89.940 L 112.500 93.729 112.338 97.871 C 112.004 106.447, 105.900 112.142, 96.795 112.371 L 91.689 112.500 85.166 121.383 C 78.925 129.879, 78.726 130.326, 80.571 131.677 C 84.383 134.466, 93.071 136.258, 100.475 135.783 C 119.443 134.566, 134.585 119.432, 135.771 100.505 C 136.267 92.584, 135.069 86.588, 132.937 86.327 C 132.147 86.229, 127.225 87.855, 122 89.940 M 93.500 87.945 C 88.076 90.165, 85.603 97.398, 88.411 102.828 C 90.138 106.167, 94.539 109, 98 109 C 103.300 109, 109 103.300, 109 98 C 109 90.608, 100.487 85.086, 93.500 87.945 M 72.326 105.837 C 67.280 107.851, 62.841 109.814, 62.461 110.198 C 60.697 111.981, 71.884 128, 74.893 128 C 75.343 128, 78.695 123.947, 82.342 118.994 L 88.972 109.987 86.236 106.032 C 84.731 103.856, 83.050 102.098, 82.500 102.125 C 81.950 102.151, 77.372 103.822, 72.326 105.837" stroke="none" fill="#f2eff8" fill-rule="evenodd"/><path d="M -0 98.005 L -0 196.010 98.250 195.755 L 196.500 195.500 196.755 97.750 L 197.010 0 98.505 0 L 0 0 -0 98.005 M 0.481 98.500 C 0.481 152.400, 0.602 174.303, 0.750 147.174 C 0.898 120.045, 0.898 75.945, 0.750 49.174 C 0.602 22.403, 0.481 44.600, 0.481 98.500 M 88.250 19.662 C 87.382 20.012, 87 22.869, 87 29.002 L 87 37.837 80.750 39.937 C 77.313 41.092, 72.047 43.388, 69.049 45.041 L 63.599 48.045 57.523 42.022 C 54.181 38.710, 50.996 36, 50.446 36 C 49.178 36, 36 49.225, 36 50.498 C 36 51.020, 38.688 54.158, 41.974 57.473 L 47.947 63.500 45.540 68.530 C 44.216 71.297, 42.373 76.584, 41.445 80.280 L 39.757 87 29.985 87 C 18.567 87, 19 86.566, 19 98 C 19 109.431, 18.571 109, 29.959 109 L 39.703 109 41.426 115.363 C 42.373 118.862, 44.257 124.120, 45.613 127.047 L 48.078 132.367 42.039 138.461 C 38.718 141.812, 36 145.004, 36 145.554 C 36 146.822, 49.225 160, 50.498 160 C 51.020 160, 54.220 157.251, 57.610 153.891 L 63.773 147.783 68.393 150.490 C 70.934 151.979, 76.048 154.257, 79.757 155.552 L 86.500 157.905 86.788 166.986 L 87.076 176.067 97.788 175.783 L 108.500 175.500 109 166.701 L 109.500 157.902 116.020 155.628 C 119.606 154.377, 124.704 152.086, 127.350 150.535 L 132.160 147.716 138.590 154.090 L 145.021 160.463 152.742 152.742 L 160.463 145.021 154.143 138.644 L 147.823 132.267 149.776 128.384 C 151.790 124.380, 153.086 120.612, 154.982 113.250 L 156.077 109 166.039 109 L 176 109 176 98 L 176 87 166.019 87 L 156.038 87 155.430 84.250 C 154.266 78.984, 151.713 71.474, 149.774 67.616 L 147.823 63.733 153.911 57.589 C 157.260 54.211, 160 50.996, 160 50.446 C 160 49.178, 146.775 36, 145.502 36 C 144.980 36, 141.822 38.707, 138.484 42.016 L 132.414 48.032 126.564 44.864 C 123.347 43.121, 118.192 40.916, 115.107 39.963 L 109.500 38.231 109.208 29.398 C 109.025 23.880, 108.463 20.278, 107.708 19.798 C 106.389 18.960, 90.270 18.847, 88.250 19.662 M 91 31.378 C 91 40.668, 90.606 41.360, 84.705 42.423 C 82.618 42.800, 76.855 45.181, 71.897 47.715 L 62.883 52.322 57.163 46.661 C 54.016 43.547, 50.986 41, 50.429 41 C 49.167 41, 41 49.236, 41 50.509 C 41 51.022, 43.552 54.021, 46.670 57.172 L 52.341 62.903 49.213 69.701 C 47.492 73.441, 45.438 79.278, 44.649 82.673 C 43.859 86.068, 42.914 89.330, 42.548 89.923 C 42.148 90.569, 38.107 91, 32.441 91 L 23 91 23 98 L 23 105 32.441 105 C 38.107 105, 42.148 105.431, 42.548 106.077 C 42.914 106.670, 43.859 109.932, 44.649 113.327 C 45.438 116.722, 47.492 122.559, 49.213 126.299 L 52.341 133.097 46.455 139.046 L 40.569 144.994 45.474 149.973 L 50.379 154.953 56.594 148.985 L 62.808 143.018 69.328 146.827 C 72.914 148.923, 78.694 151.473, 82.174 152.494 C 85.653 153.515, 89.063 154.777, 89.750 155.298 C 90.575 155.923, 91 159.092, 91 164.622 L 91 173 98 173 L 105 173 105 163.969 C 105 157.579, 105.366 154.845, 106.250 154.621 C 113.515 152.785, 123.168 149.004, 127.346 146.358 L 132.500 143.094 138.759 149.277 L 145.017 155.459 150.248 150.229 L 155.478 144.998 149.369 138.889 L 143.259 132.779 146.137 127.139 C 147.720 124.038, 149.808 118.350, 150.779 114.500 C 151.749 110.650, 152.897 106.938, 153.330 106.250 C 153.870 105.394, 157.093 105, 163.559 105 L 173 105 173 98 L 173 91 163.622 91 C 157.306 91, 153.927 90.592, 153.272 89.750 C 152.737 89.063, 151.727 85.716, 151.027 82.314 C 150.327 78.911, 148.278 73.089, 146.475 69.375 L 143.196 62.623 149.075 56.501 L 154.953 50.379 149.973 45.474 L 144.994 40.569 139.002 46.498 L 133.011 52.427 126.255 48.838 C 119.495 45.247, 112.914 42.655, 107.750 41.550 L 105 40.962 105 31.981 L 105 23 98 23 L 91 23 91 31.378 M 85.352 58.061 C 68.748 63.324, 57.492 77.865, 56.249 95.657 C 55.015 113.326, 66.089 130.516, 83 137.182 C 90.451 140.119, 104.333 140.323, 111.500 137.601 C 123.643 132.989, 133.743 123.011, 137.670 111.748 C 140.307 104.184, 140.072 90.332, 137.182 83 C 129.075 62.432, 106.234 51.442, 85.352 58.061 M 85.423 61.773 C 74.629 65.605, 64.639 75.905, 61.455 86.483 C 59.833 91.873, 59.469 106, 60.952 106 C 61.476 106, 66.620 104.179, 72.383 101.953 C 81.970 98.250, 82.918 97.648, 83.527 94.878 C 84.984 88.243, 93.731 81.963, 99.499 83.410 C 101.665 83.954, 102.462 83.040, 107.921 73.755 L 113.951 63.500 110.725 62.055 C 105.640 59.776, 91.491 59.619, 85.423 61.773 M 111.446 75.094 L 105.700 85.155 108.276 87.731 L 110.852 90.307 120.950 86.519 C 126.504 84.435, 131.281 82.355, 131.565 81.895 C 132.392 80.556, 129.482 75.738, 125.152 71.276 C 117.822 63.723, 117.963 63.684, 111.446 75.094 M 122 89.940 L 112.500 93.729 112.338 97.871 C 112.004 106.447, 105.900 112.142, 96.795 112.371 L 91.689 112.500 85.166 121.383 C 78.925 129.879, 78.726 130.326, 80.571 131.677 C 84.383 134.466, 93.071 136.258, 100.475 135.783 C 119.443 134.566, 134.585 119.432, 135.771 100.505 C 136.267 92.584, 135.069 86.588, 132.937 86.327 C 132.147 86.229, 127.225 87.855, 122 89.940 M 93.500 87.945 C 88.076 90.165, 85.603 97.398, 88.411 102.828 C 90.138 106.167, 94.539 109, 98 109 C 103.300 109, 109 103.300, 109 98 C 109 90.608, 100.487 85.086, 93.500 87.945 M 72.326 105.837 C 67.280 107.851, 62.841 109.814, 62.461 110.198 C 60.697 111.981, 71.884 128, 74.893 128 C 75.343 128, 78.695 123.947, 82.342 118.994 L 88.972 109.987 86.236 106.032 C 84.731 103.856, 83.050 102.098, 82.500 102.125 C 81.950 102.151, 77.372 103.822, 72.326 105.837" stroke="none" fill="#8c74d3" fill-rule="evenodd"/></svg>